<?xml version="1.0" standalone="no"?>
<!DOCTYPE svg PUBLIC "-//W3C//DTD SVG 20010904//EN"
 "http://www.w3.org/TR/2001/REC-SVG-20010904/DTD/svg10.dtd">
<svg version="1.0" xmlns="http://www.w3.org/2000/svg"
 width="1000.000000pt" height="1000.000000pt" viewBox="0 0 1000.000000 1000.000000"
 preserveAspectRatio="xMidYMid meet">
<metadata>
Created by potrace 1.11, written by Peter Selinger 2001-2013
</metadata>
<g transform="translate(0.000000,1000.000000) scale(0.100000,-0.100000)"
fill="#000000" stroke="none">
<path d="M2867 5853 c-3 -2320 1 -2142 -62 -2326 -44 -129 -138 -251 -243
-318 -88 -56 -163 -74 -307 -73 -199 0 -308 37 -409 138 -100 100 -147 245
-162 499 l-7 117 -713 0 -714 0 0 -67 c0 -187 35 -413 95 -613 41 -138 81
-229 148 -342 327 -551 933 -838 1771 -838 388 0 679 65 992 220 248 123 460
288 611 475 268 333 384 639 413 1092 6 86 10 982 10 2146 l0 1997 -710 0
-709 0 -4 -2107z"/>
<path d="M5152 5038 l3 -2923 713 -3 712 -2 0 990 0 990 524 0 c691 0 911 17
1196 90 334 87 667 257 887 452 155 138 304 331 390 503 47 93 124 325 147
440 50 256 49 556 -5 818 -76 375 -220 650 -484 926 -272 284 -716 509 -1174
596 -223 43 -300 45 -1634 45 l-1277 0 2 -2922z m2542 1799 c144 -34 228 -75
340 -166 121 -98 209 -243 247 -410 32 -135 37 -386 10 -518 -33 -167 -114
-296 -252 -402 -46 -35 -164 -90 -240 -111 -121 -33 -247 -39 -746 -40 l-473
0 0 836 0 836 523 -5 c431 -4 534 -7 591 -20z"/>
</g>
</svg>
